<svg width="17" height="16" viewBox="0 0 17 16" fill="none" xmlns="http://www.w3.org/2000/svg">
<path d="M16.6666 8.04902C16.6666 3.60302 13.0846 -0.000976562 8.66655 -0.000976562C4.24655 2.34375e-05 0.664551 3.60302 0.664551 8.05002C0.664551 12.067 3.59055 15.397 7.41455 16.001V10.376H5.38455V8.05002H7.41655V6.27502C7.41655 4.25802 8.61155 3.14402 10.4386 3.14402C11.3146 3.14402 12.2296 3.30102 12.2296 3.30102V5.28102H11.2206C10.2276 5.28102 9.91755 5.90202 9.91755 6.53902V8.04902H12.1356L11.7816 10.375H9.91655V16C13.7406 15.396 16.6666 12.066 16.6666 8.04902Z" fill="#046ADF"/>
</svg>
