<svg width="17" height="16" viewBox="0 0 17 16" fill="none" xmlns="http://www.w3.org/2000/svg">
<path d="M8.6665 0C6.4955 0 6.2225 0.01 5.3695 0.048C4.5165 0.088 3.9355 0.222 3.4265 0.42C2.8926 0.620819 2.409 0.935826 2.0095 1.343C1.60258 1.7427 1.28761 2.22624 1.0865 2.76C0.888504 3.268 0.753504 3.85 0.714504 4.7C0.676504 5.555 0.666504 5.827 0.666504 8.001C0.666504 10.173 0.676504 10.445 0.714504 11.298C0.754504 12.15 0.888504 12.731 1.0865 13.24C1.2915 13.766 1.5645 14.212 2.0095 14.657C2.4535 15.102 2.8995 15.376 3.4255 15.58C3.9355 15.778 4.5155 15.913 5.3675 15.952C6.2215 15.99 6.4935 16 8.6665 16C10.8395 16 11.1105 15.99 11.9645 15.952C12.8155 15.912 13.3985 15.778 13.9075 15.58C14.4411 15.3791 14.9243 15.0641 15.3235 14.657C15.7685 14.212 16.0415 13.766 16.2465 13.24C16.4435 12.731 16.5785 12.15 16.6185 11.298C16.6565 10.445 16.6665 10.173 16.6665 8C16.6665 5.827 16.6565 5.555 16.6185 4.701C16.5785 3.85 16.4435 3.268 16.2465 2.76C16.0454 2.22623 15.7305 1.74268 15.3235 1.343C14.9241 0.935676 14.4405 0.620645 13.9065 0.42C13.3965 0.222 12.8145 0.087 11.9635 0.048C11.1095 0.01 10.8385 0 8.6645 0H8.6675H8.6665ZM7.9495 1.442H8.6675C10.8035 1.442 11.0565 1.449 11.8995 1.488C12.6795 1.523 13.1035 1.654 13.3855 1.763C13.7585 1.908 14.0255 2.082 14.3055 2.362C14.5855 2.642 14.7585 2.908 14.9035 3.282C15.0135 3.563 15.1435 3.987 15.1785 4.767C15.2175 5.61 15.2255 5.863 15.2255 7.998C15.2255 10.133 15.2175 10.387 15.1785 11.23C15.1435 12.01 15.0125 12.433 14.9035 12.715C14.7752 13.0624 14.5705 13.3764 14.3045 13.634C14.0245 13.914 13.7585 14.087 13.3845 14.232C13.1045 14.342 12.6805 14.472 11.8995 14.508C11.0565 14.546 10.8035 14.555 8.6675 14.555C6.5315 14.555 6.2775 14.546 5.4345 14.508C4.6545 14.472 4.2315 14.342 3.9495 14.232C3.602 14.1039 3.28763 13.8996 3.0295 13.634C2.76325 13.376 2.55823 13.0617 2.4295 12.714C2.3205 12.433 2.1895 12.009 2.1545 11.229C2.1165 10.386 2.1085 10.133 2.1085 7.996C2.1085 5.86 2.1165 5.608 2.1545 4.765C2.1905 3.985 2.3205 3.561 2.4305 3.279C2.5755 2.906 2.7495 2.639 3.0295 2.359C3.3095 2.079 3.5755 1.906 3.9495 1.761C4.2315 1.651 4.6545 1.521 5.4345 1.485C6.1725 1.451 6.4585 1.441 7.9495 1.44V1.442ZM12.9375 2.77C12.8114 2.77 12.6866 2.79483 12.5701 2.84308C12.4537 2.89132 12.3478 2.96203 12.2587 3.05118C12.1695 3.14032 12.0988 3.24615 12.0506 3.36262C12.0023 3.4791 11.9775 3.60393 11.9775 3.73C11.9775 3.85607 12.0023 3.9809 12.0506 4.09738C12.0988 4.21385 12.1695 4.31968 12.2587 4.40882C12.3478 4.49797 12.4537 4.56868 12.5701 4.61692C12.6866 4.66517 12.8114 4.69 12.9375 4.69C13.1921 4.69 13.4363 4.58886 13.6163 4.40882C13.7964 4.22879 13.8975 3.98461 13.8975 3.73C13.8975 3.47539 13.7964 3.23121 13.6163 3.05118C13.4363 2.87114 13.1921 2.77 12.9375 2.77ZM8.6675 3.892C8.12257 3.8835 7.5814 3.98349 7.07548 4.18614C6.56957 4.3888 6.10902 4.69007 5.72065 5.07242C5.33229 5.45478 5.02387 5.91057 4.81334 6.41326C4.60282 6.91595 4.4944 7.4555 4.4944 8.0005C4.4944 8.5455 4.60282 9.08505 4.81334 9.58774C5.02387 10.0904 5.33229 10.5462 5.72065 10.9286C6.10902 11.3109 6.56957 11.6122 7.07548 11.8149C7.5814 12.0175 8.12257 12.1175 8.6675 12.109C9.74605 12.0922 10.7747 11.6519 11.5315 10.8833C12.2882 10.1146 12.7124 9.07917 12.7124 8.0005C12.7124 6.92183 12.2882 5.88641 11.5315 5.11775C10.7747 4.34909 9.74605 3.90883 8.6675 3.892ZM8.6675 5.333C9.37484 5.333 10.0532 5.61399 10.5534 6.11415C11.0535 6.61431 11.3345 7.29267 11.3345 8C11.3345 8.70733 11.0535 9.38569 10.5534 9.88585C10.0532 10.386 9.37484 10.667 8.6675 10.667C7.96017 10.667 7.28181 10.386 6.78165 9.88585C6.28149 9.38569 6.0005 8.70733 6.0005 8C6.0005 7.29267 6.28149 6.61431 6.78165 6.11415C7.28181 5.61399 7.96017 5.333 8.6675 5.333Z" fill="#F54EBC"/>
</svg>
