<svg width="17" height="16" viewBox="0 0 17 16" fill="none" xmlns="http://www.w3.org/2000/svg">
<path d="M8.6665 0C13.0775 0 16.6665 2.912 16.6665 6.492C16.6665 7.925 16.1115 9.215 14.9515 10.486C13.2735 12.418 9.5205 14.771 8.6665 15.131C7.8365 15.481 7.9325 14.934 7.9705 14.718L7.9735 14.7L8.0875 14.015C8.1145 13.811 8.1425 13.494 8.0615 13.292C7.9715 13.069 7.6175 12.953 7.3575 12.897C3.5125 12.39 0.666504 9.701 0.666504 6.492C0.666504 2.912 4.2565 0 8.6665 0ZM5.6885 7.686H4.1635V4.918C4.1635 4.8768 4.14721 4.83727 4.11817 4.80804C4.08913 4.77882 4.0497 4.76226 4.0085 4.762H3.4465C3.42602 4.762 3.40573 4.76604 3.38681 4.77387C3.36788 4.78171 3.35068 4.79321 3.3362 4.80769C3.32171 4.82218 3.31022 4.83937 3.30238 4.8583C3.29454 4.87723 3.2905 4.89751 3.2905 4.918V8.404C3.2905 8.445 3.3075 8.484 3.3345 8.511V8.512L3.3365 8.514L3.3385 8.516C3.3675 8.54389 3.40627 8.55933 3.4465 8.559H5.6885C5.7745 8.559 5.8435 8.489 5.8435 8.403V7.843C5.84364 7.82251 5.83973 7.8022 5.83201 7.78322C5.82429 7.76425 5.81291 7.74698 5.79852 7.7324C5.78413 7.71782 5.767 7.70622 5.74813 7.69826C5.72925 7.6903 5.70899 7.68613 5.6885 7.686ZM6.4795 4.762C6.43813 4.762 6.39845 4.77844 6.3692 4.80769C6.33994 4.83695 6.3235 4.87663 6.3235 4.918V8.404C6.3235 8.49 6.3935 8.559 6.4795 8.559H7.0415C7.1275 8.559 7.1965 8.489 7.1965 8.404V4.918C7.19651 4.8768 7.18021 4.83727 7.15117 4.80804C7.12213 4.77882 7.0827 4.76226 7.0415 4.762H6.4795ZM10.3425 4.762C10.3011 4.762 10.2615 4.77844 10.2322 4.80769C10.2029 4.83695 10.1865 4.87663 10.1865 4.918V6.988L8.5895 4.832C8.58547 4.82675 8.58113 4.82174 8.5765 4.817V4.816C8.57334 4.8125 8.57 4.80916 8.5665 4.806L8.5635 4.803C8.56007 4.79972 8.5564 4.79671 8.5525 4.794H8.5515L8.5465 4.79L8.5435 4.788C8.54194 4.78683 8.54027 4.78583 8.5385 4.785L8.5305 4.78H8.5285L8.5255 4.778L8.5155 4.774L8.5115 4.772C8.50823 4.77081 8.50489 4.76981 8.5015 4.769H8.4995L8.4965 4.768L8.4875 4.766H8.4815L8.4785 4.765H8.4745L8.4725 4.764H7.8985C7.8573 4.764 7.81777 4.7803 7.78855 4.80934C7.75932 4.83838 7.74277 4.8778 7.7425 4.919V8.405C7.7425 8.491 7.8125 8.56 7.8985 8.56H8.4585C8.5455 8.56 8.6155 8.49 8.6155 8.405V6.335L10.2155 8.495C10.2261 8.50988 10.2394 8.52275 10.2545 8.533L10.2555 8.534L10.2655 8.54L10.2695 8.542C10.2721 8.54351 10.2747 8.54485 10.2775 8.546L10.2845 8.549L10.2895 8.551C10.2928 8.5521 10.2961 8.5531 10.2995 8.554H10.3025C10.3155 8.55774 10.329 8.55976 10.3425 8.56H10.9025C10.9895 8.56 11.0595 8.49 11.0595 8.405V4.918C11.0595 4.87663 11.0431 4.83695 11.0138 4.80769C10.9846 4.77844 10.9449 4.762 10.9035 4.762H10.3425ZM14.1575 5.479V4.919C14.1576 4.89851 14.1537 4.8782 14.146 4.85922C14.1383 4.84025 14.1269 4.82298 14.1125 4.8084C14.0981 4.79382 14.081 4.78222 14.0621 4.77426C14.0433 4.7663 14.023 4.76213 14.0025 4.762H11.7605C11.7201 4.76205 11.6814 4.77783 11.6525 4.806H11.6515L11.6505 4.808L11.6485 4.811C11.6206 4.83965 11.6048 4.87799 11.6045 4.918V8.404C11.6045 8.445 11.6215 8.484 11.6485 8.511L11.6505 8.514L11.6525 8.516C11.6816 8.5438 11.7203 8.55922 11.7605 8.559H14.0025C14.0885 8.559 14.1575 8.489 14.1575 8.403V7.843C14.1576 7.82251 14.1537 7.8022 14.146 7.78322C14.1383 7.76425 14.1269 7.74698 14.1125 7.7324C14.0981 7.71782 14.081 7.70622 14.0621 7.69826C14.0433 7.6903 14.023 7.68613 14.0025 7.686H12.4765V7.097H14.0015C14.0875 7.097 14.1565 7.027 14.1565 6.941V6.381C14.1566 6.36051 14.1527 6.3402 14.145 6.32122C14.1373 6.30225 14.1259 6.28498 14.1115 6.2704C14.0971 6.25582 14.08 6.24422 14.0611 6.23626C14.0422 6.2283 14.022 6.22413 14.0015 6.224H12.4765V5.635H14.0015C14.0875 5.635 14.1565 5.565 14.1565 5.479H14.1575Z" fill="#0ADD45"/>
</svg>
