<svg width="17" height="16" viewBox="0 0 17 16" fill="none" xmlns="http://www.w3.org/2000/svg">
<path d="M14.2675 2.32605C13.534 1.58573 12.6604 0.998793 11.6978 0.599454C10.7352 0.200115 9.70268 -0.00364427 8.6605 4.93305e-05C4.2935 4.93305e-05 0.734504 3.55805 0.730504 7.92605C0.730504 9.32505 1.0965 10.686 1.7875 11.891L0.666504 16L4.8705 14.898C6.03351 15.531 7.33643 15.8627 8.6605 15.863H8.6645C13.0325 15.863 16.5905 12.305 16.5945 7.93305C16.5955 6.89109 16.3903 5.85924 15.9908 4.89693C15.5912 3.93462 15.0052 3.06088 14.2665 2.32605H14.2675ZM8.6605 14.521C7.4795 14.5214 6.32021 14.2036 5.3045 13.601L5.0645 13.457L2.5705 14.111L3.2365 11.6781L3.0805 11.427C2.42031 10.3774 2.07115 9.16208 2.0735 7.92205C2.0735 4.29605 5.0305 1.33805 8.6645 1.33805C9.53024 1.3365 10.3877 1.50632 11.1875 1.83774C11.9873 2.16916 12.7136 2.65561 13.3245 3.26905C13.9375 3.8801 14.4235 4.60647 14.7544 5.40628C15.0853 6.20609 15.2546 7.06349 15.2525 7.92905C15.2485 11.568 12.2915 14.521 8.6605 14.521ZM12.2755 9.58705C12.0785 9.48805 11.1055 9.00905 10.9225 8.94105C10.7405 8.87605 10.6075 8.84205 10.4775 9.04005C10.3445 9.23705 9.9645 9.68605 9.8505 9.81505C9.7365 9.94805 9.6185 9.96305 9.4205 9.86505C9.2235 9.76505 8.5845 9.55705 7.8285 8.88005C7.2385 8.35505 6.8435 7.70505 6.7255 7.50805C6.6115 7.31005 6.7145 7.20405 6.8135 7.10505C6.9005 7.01705 7.0105 6.87305 7.1095 6.75905C7.2095 6.64505 7.2425 6.56105 7.3075 6.42905C7.3725 6.29505 7.3415 6.18105 7.2925 6.08205C7.2425 5.98305 6.8475 5.00605 6.6805 4.61205C6.5205 4.22305 6.3575 4.27705 6.2355 4.27205C6.1215 4.26505 5.9885 4.26505 5.8555 4.26505C5.75507 4.26755 5.65623 4.29078 5.5652 4.33328C5.47416 4.37579 5.3929 4.43665 5.3265 4.51205C5.1445 4.71005 4.6355 5.18905 4.6355 6.16605C4.6355 7.14305 5.3455 8.08205 5.4455 8.21505C5.5435 8.34805 6.8395 10.347 8.8285 11.207C9.2985 11.412 9.6685 11.533 9.9575 11.625C10.4325 11.7771 10.8615 11.754 11.2035 11.705C11.5835 11.647 12.3745 11.225 12.5415 10.762C12.7055 10.298 12.7055 9.90205 12.6555 9.81905C12.6065 9.73505 12.4735 9.68605 12.2755 9.58705Z" fill="#03A931"/>
</svg>
